<svg width="99" height="26" viewBox="0 0 99 26" fill="none" xmlns="http://www.w3.org/2000/svg">
<g clip-path="url(#clip0_423_54)">
<path d="M4.72727 1.18182L1.18182 5.90909V22.4545C1.18182 23.0814 1.43084 23.6826 1.87411 24.1259C2.31738 24.5692 2.91858 24.8182 3.54545 24.8182H20.0909C20.7178 24.8182 21.319 24.5692 21.7623 24.1259C22.2055 23.6826 22.4545 23.0814 22.4545 22.4545V5.90909L18.9091 1.18182H4.72727Z" stroke="white" stroke-width="2" stroke-linecap="round" stroke-linejoin="round"/>
<path d="M1.18182 5.90909H22.4545" stroke="white" stroke-width="2" stroke-linecap="round" stroke-linejoin="round"/>
<path opacity="0.5" d="M16.5455 10.6364C16.5455 11.8901 16.0474 13.0925 15.1609 13.9791C14.2743 14.8656 13.0719 15.3636 11.8182 15.3636C10.5644 15.3636 9.36203 14.8656 8.4755 13.9791C7.58896 13.0925 7.09091 11.8901 7.09091 10.6364" stroke="white" stroke-width="2" stroke-linecap="round" stroke-linejoin="round"/>
</g>
<path d="M34.3825 13.4276L31.6364 15.4058C32.0087 16.1816 32.5285 16.8953 33.1956 17.5469C33.8628 18.1985 34.6463 18.7183 35.5462 19.1062C36.4616 19.4785 37.4468 19.6647 38.5018 19.6647C39.2621 19.6647 39.999 19.5484 40.7127 19.3156C41.4419 19.0984 42.0858 18.7726 42.6444 18.3382C43.2184 17.9038 43.6684 17.3685 43.9942 16.7324C44.3355 16.0807 44.5062 15.3438 44.5062 14.5215C44.5062 13.8388 44.3976 13.2337 44.1804 12.7062C43.9632 12.1787 43.6606 11.7132 43.2727 11.3098C42.9004 10.9064 42.4659 10.5651 41.9695 10.2858C41.473 9.99103 40.9377 9.73503 40.3636 9.51782C39.6034 9.25406 38.9518 9.00582 38.4087 8.77309C37.8812 8.54036 37.4701 8.28436 37.1753 8.00509C36.896 7.72582 36.7564 7.4 36.7564 7.02764C36.7564 6.67079 36.9038 6.376 37.1985 6.14327C37.4933 5.89503 37.92 5.77091 38.4785 5.77091C38.8975 5.77091 39.2853 5.85624 39.6422 6.02691C40.0145 6.18206 40.3481 6.40703 40.6429 6.70182C40.9532 6.98109 41.2247 7.31467 41.4575 7.70255L44.4596 6.02691C44.1804 5.46836 43.777 4.91758 43.2495 4.37454C42.7219 3.83152 42.0548 3.38158 41.248 3.02473C40.4567 2.66788 39.5181 2.48945 38.432 2.48945C37.377 2.48945 36.415 2.67564 35.5462 3.048C34.6929 3.40485 34.0102 3.93236 33.4982 4.63055C33.0017 5.32873 32.7535 6.15879 32.7535 7.12073C32.7535 7.92751 32.9009 8.61794 33.1956 9.192C33.4904 9.75054 33.8628 10.2315 34.3127 10.6349C34.7627 11.0228 35.2359 11.3408 35.7324 11.5891C36.2444 11.8373 36.6943 12.0313 37.0822 12.1709C37.8735 12.4657 38.5096 12.7295 38.9905 12.9622C39.4715 13.1949 39.8206 13.4432 40.0378 13.7069C40.255 13.9552 40.3636 14.2887 40.3636 14.7076C40.3636 15.2041 40.1775 15.5998 39.8051 15.8945C39.4327 16.1738 38.9595 16.3135 38.3855 16.3135C37.8424 16.3135 37.3227 16.1971 36.8262 15.9644C36.3452 15.7316 35.8953 15.3981 35.4764 14.9636C35.073 14.5292 34.7084 14.0172 34.3825 13.4276Z" fill="white"/>
<path d="M50.3244 1H46.7869V19.1527H50.3244V1ZM53.7455 12.6364V19.1527H57.2596V12.1244C57.2596 11.24 57.1355 10.4953 56.8873 9.89018C56.639 9.28509 56.2434 8.82739 55.7004 8.51709C55.1729 8.20679 54.4669 8.05164 53.5825 8.05164C52.6982 8.05164 51.969 8.26109 51.3949 8.68C50.8364 9.08339 50.4175 9.63418 50.1382 10.3324C49.8589 11.015 49.7193 11.783 49.7193 12.6364H50.3244C50.3244 12.2175 50.4019 11.8684 50.5571 11.5891C50.7122 11.2943 50.9295 11.0693 51.2087 10.9142C51.488 10.7435 51.8138 10.6582 52.1862 10.6582C52.7602 10.6582 53.1636 10.8288 53.3964 11.1702C53.6291 11.5115 53.7455 12.0002 53.7455 12.6364Z" fill="white"/>
<path d="M59.4085 13.8C59.4085 14.9171 59.6723 15.8945 60.1998 16.7324C60.7273 17.5702 61.4565 18.2218 62.3875 18.6873C63.3184 19.1527 64.3656 19.3855 65.5293 19.3855C66.6929 19.3855 67.7324 19.1527 68.6478 18.6873C69.5787 18.2218 70.3079 17.5702 70.8355 16.7324C71.3785 15.8945 71.65 14.9171 71.65 13.8C71.65 12.6674 71.3785 11.6822 70.8355 10.8444C70.3079 10.0065 69.5787 9.35491 68.6478 8.88945C67.7324 8.424 66.6929 8.19127 65.5293 8.19127C64.3656 8.19127 63.3184 8.424 62.3875 8.88945C61.4565 9.35491 60.7273 10.0065 60.1998 10.8444C59.6723 11.6822 59.4085 12.6674 59.4085 13.8ZM63.0158 13.8C63.0158 13.2415 63.1322 12.7605 63.3649 12.3571C63.5976 11.9537 63.9002 11.6434 64.2725 11.4262C64.6449 11.209 65.0638 11.1004 65.5293 11.1004C65.9792 11.1004 66.3904 11.209 66.7627 11.4262C67.1506 11.6434 67.4532 11.9537 67.6704 12.3571C67.9031 12.7605 68.0195 13.2415 68.0195 13.8C68.0195 14.3585 67.9031 14.8395 67.6704 15.2429C67.4532 15.6308 67.1506 15.9333 66.7627 16.1505C66.3904 16.3678 65.9792 16.4764 65.5293 16.4764C65.0638 16.4764 64.6449 16.3678 64.2725 16.1505C63.9002 15.9333 63.5976 15.6308 63.3649 15.2429C63.1322 14.8395 63.0158 14.3585 63.0158 13.8Z" fill="white"/>
<path d="M77.2551 24.2727V8.44727H73.7409V24.2727H77.2551ZM86.0056 13.8C86.0056 12.5433 85.7574 11.496 85.2609 10.6582C84.7799 9.80485 84.1516 9.16097 83.3758 8.72655C82.6156 8.29212 81.7933 8.07491 80.9089 8.07491C79.978 8.07491 79.1712 8.31539 78.4885 8.79636C77.8214 9.26182 77.3094 9.92121 76.9525 10.7745C76.5957 11.6279 76.4173 12.6364 76.4173 13.8C76.4173 14.9481 76.5957 15.9566 76.9525 16.8255C77.3094 17.6788 77.8214 18.3459 78.4885 18.8269C79.1712 19.2924 79.978 19.5251 80.9089 19.5251C81.7933 19.5251 82.6156 19.3079 83.3758 18.8735C84.1516 18.439 84.7799 17.7952 85.2609 16.9418C85.7574 16.0885 86.0056 15.0412 86.0056 13.8ZM82.3053 13.8C82.3053 14.3585 82.1889 14.8318 81.9562 15.2196C81.7235 15.6075 81.4131 15.9023 81.0253 16.104C80.6374 16.3057 80.2107 16.4065 79.7453 16.4065C79.3419 16.4065 78.9462 16.3135 78.5584 16.1273C78.186 15.9256 77.8757 15.6308 77.6275 15.2429C77.3792 14.855 77.2551 14.3741 77.2551 13.8C77.2551 13.2259 77.3792 12.745 77.6275 12.3571C77.8757 11.9692 78.186 11.6822 78.5584 11.496C78.9462 11.2943 79.3419 11.1935 79.7453 11.1935C80.2107 11.1935 80.6374 11.2943 81.0253 11.496C81.4131 11.6977 81.7235 11.9925 81.9562 12.3804C82.1889 12.7682 82.3053 13.2415 82.3053 13.8Z" fill="white"/>
<path d="M98.7484 8.44727H95.1411L91.72 17.0116L93.5353 17.0349L90.0676 8.44727H86.2044L90.8356 18.2916L88.2291 24.2727H91.7665L98.7484 8.44727Z" fill="white"/>
<defs>
<clipPath id="clip0_423_54">
<rect width="23.6364" height="26" fill="white"/>
</clipPath>
</defs>
</svg>
