<svg width="89" height="34" viewBox="0 0 89 34" fill="none" xmlns="http://www.w3.org/2000/svg">
<rect x="20" y="2" width="30" height="30" rx="15" fill="#02C39A"/>
<path d="M2.98969 27.1544C2.01868 27.1544 1.27764 26.8881 0.766587 26.3557C0.255529 25.8233 0 25.0753 0 24.1119V3.00447C0 2.01566 0.255529 1.26771 0.766587 0.760626C1.3032 0.253542 2.05701 0 3.02802 0H12.342C15.3573 0 17.6826 0.722595 19.318 2.16779C20.9534 3.61298 21.7711 5.62864 21.7711 8.21477C21.7711 9.88814 21.4005 11.3333 20.6595 12.5503C19.9185 13.7673 18.8453 14.7054 17.4398 15.3647C16.06 16.0239 16.2389 15.7069 14.2202 15.7069C15.2934 15.7069 16.2261 15.9732 17.0182 16.5056C17.8359 17.0127 18.5386 17.7987 19.1263 18.8635L21.5028 23.2371C21.8605 23.871 22.0266 24.4922 22.001 25.1007C21.9755 25.7092 21.7455 26.2036 21.3111 26.5839C20.8767 26.9642 20.2379 27.1544 19.3946 27.1544C18.5514 27.1544 17.8615 26.9769 17.3249 26.6219C16.8138 26.267 16.3538 25.7218 15.945 24.9866L12.2654 18.255C11.8821 17.5451 11.4094 17.0634 10.8472 16.8098C10.3106 16.5563 9.64621 16.4295 8.85407 16.4295H5.94105V24.1119C5.94105 25.0753 5.68552 25.8233 5.17446 26.3557C4.68895 26.8881 3.9607 27.1544 2.98969 27.1544ZM5.94105 12.17H11.2688C12.8531 12.17 14.0413 11.8531 14.8335 11.2192C15.6511 10.5854 16.06 9.6346 16.06 8.36689C16.06 7.12453 15.6511 6.18643 14.8335 5.55257C14.0413 4.91872 12.8531 4.60179 11.2688 4.60179H5.94105V12.17Z" fill="white"/>
<path d="M51.1499 27.1544C50.2044 27.1544 49.4762 26.9008 48.9651 26.3937C48.4796 25.8866 48.2369 25.1641 48.2369 24.226V10.7248C48.2369 9.78673 48.4796 9.07681 48.9651 8.59508C49.4762 8.08799 50.1789 7.83445 51.0732 7.83445C51.9931 7.83445 52.6958 8.08799 53.1813 8.59508C53.6668 9.07681 53.9096 9.78673 53.9096 10.7248V12.8926V11.7217C54.4973 10.4794 54.9445 9.44444 56.0944 8.78523C57.2698 8.10067 58.5985 7.75839 60.0806 7.75839C61.5882 7.75839 62.8276 8.04996 63.7986 8.63311C64.7696 9.1909 65.4978 10.0529 65.9833 11.2192C66.4688 12.3602 66.7116 13.818 66.7116 15.5928V24.226C66.7116 25.1641 66.4561 25.8866 65.945 26.3937C65.4595 26.9008 64.744 27.1544 63.7986 27.1544C62.8787 27.1544 62.1632 26.9008 61.6521 26.3937C61.1666 25.8866 60.9239 25.1641 60.9239 24.226V15.8591C60.9239 14.566 60.6811 13.6406 60.1956 13.0828C59.7357 12.4996 59.0202 12.2081 58.0492 12.2081C56.8226 12.2081 55.8388 12.5884 55.0978 13.349C54.3823 14.1096 54.0246 15.1238 54.0246 16.3915V24.226C54.0246 26.1782 53.0664 27.1544 51.1499 27.1544Z" fill="white"/>
<path d="M75.9813 34C75.3169 34 74.7675 33.8225 74.3331 33.4676C73.8987 33.1126 73.6432 32.6436 73.5666 32.0604C73.4899 31.5026 73.5921 30.9068 73.8732 30.2729L76.4413 24.6443L69.657 11.5615C69.4014 10.9023 69.312 10.2938 69.3887 9.73602C69.4909 9.15287 69.772 8.6965 70.2319 8.36689C70.7174 8.01193 71.3818 7.83445 72.225 7.83445C72.915 7.83445 73.4643 7.99926 73.8732 8.32886C74.3076 8.63311 74.7037 9.22893 75.0614 10.1163L78.9156 20.1601L78.3577 21.5257L83.0339 10.0783C83.3916 9.21626 83.7877 8.63311 84.2221 8.32886C84.6821 7.99926 85.2953 7.83445 86.0619 7.83445C86.7263 7.83445 87.2501 8.01193 87.6334 8.36689C88.0423 8.6965 88.285 9.14019 88.3617 9.69799C88.4639 10.2558 88.3617 10.8643 88.055 11.5235L79.0476 31.7942C78.6644 32.6562 78.23 33.2394 77.7444 33.5436C77.2845 33.8479 76.6968 34 75.9813 34Z" fill="white"/>
<path fill-rule="evenodd" clip-rule="evenodd" d="M34.7117 27.2304C32.693 27.2304 30.9299 26.8374 29.4223 26.0515C27.9402 25.2655 26.7903 24.1372 25.9726 22.6667C25.1549 21.1961 24.7461 19.4594 24.7461 17.4564C24.7461 15.9605 24.976 14.6167 25.436 13.4251C25.896 12.2334 26.5603 11.2192 27.4291 10.3826C28.3235 9.52051 29.3839 8.87398 30.6105 8.44295C31.837 7.98658 33.2041 7.75839 34.7117 7.75839C36.7304 7.75839 38.4807 8.15138 39.9628 8.93736C41.4704 9.72334 42.6331 10.8389 43.4508 12.2841C44.294 13.7293 44.7156 15.4534 44.7156 17.4564C44.7156 18.9776 44.4729 20.3341 43.9874 21.5257C43.5274 22.7174 42.8631 23.7442 41.9943 24.6063C41.1255 25.4683 40.065 26.1275 38.8129 26.5839C37.5864 27.0149 36.2193 27.2304 34.7117 27.2304ZM36.8965 22.3244C36.2832 22.7301 35.5549 22.9329 34.7117 22.9329C33.4852 22.9329 32.4886 22.4892 31.722 21.6018C30.9554 20.689 30.5721 19.3072 30.5721 17.4564C30.5721 16.214 30.7382 15.1999 31.0704 14.4139C31.4282 13.6025 31.9137 13.0067 32.5269 12.6264C33.1657 12.2461 33.894 12.0559 34.7117 12.0559C35.9638 12.0559 36.9731 12.4996 37.7397 13.387C38.5063 14.2491 38.8896 15.6055 38.8896 17.4564C38.8896 18.6987 38.7107 19.7256 38.353 20.5369C37.9952 21.3229 37.5097 21.9187 36.8965 22.3244Z" fill="white"/>
</svg>
