<svg width="158" height="25" viewBox="0 0 158 25" fill="none" xmlns="http://www.w3.org/2000/svg">
<path d="M27.7585 23.6939V1.30608H36.5912C38.2893 1.30608 39.7359 1.63039 40.9311 2.27899C42.1263 2.92031 43.0372 3.81305 43.664 4.95722C44.298 6.09411 44.615 7.40589 44.615 8.89259C44.615 10.3793 44.2944 11.6911 43.653 12.8279C43.0117 13.9648 42.0825 14.8503 40.8655 15.4843C39.6557 16.1183 38.1909 16.4354 36.471 16.4354H30.8412V12.6421H35.7058C36.6168 12.6421 37.3674 12.4854 37.9577 12.1721C38.5553 11.8514 38.9998 11.4105 39.2913 10.8493C39.5901 10.2809 39.7395 9.62864 39.7395 8.89259C39.7395 8.14924 39.5901 7.50063 39.2913 6.94677C38.9998 6.38561 38.5553 5.952 37.9577 5.64591C37.3601 5.33254 36.6022 5.17586 35.6839 5.17586H32.4919V23.6939H27.7585Z" fill="white"/>
<path d="M47.6895 23.6939V1.30608H56.5222C58.213 1.30608 59.6559 1.60852 60.8511 2.2134C62.0536 2.811 62.9682 3.66001 63.5949 4.76046C64.229 5.85361 64.546 7.13989 64.546 8.6193C64.546 10.106 64.2253 11.385 63.584 12.4563C62.9427 13.5203 62.0135 14.3365 60.7964 14.9049C59.5867 15.4734 58.1219 15.7576 56.402 15.7576H50.488V11.9534H55.6368C56.5404 11.9534 57.2911 11.8295 57.8887 11.5818C58.4862 11.334 58.9308 10.9623 59.2223 10.4667C59.5211 9.97117 59.6705 9.35536 59.6705 8.6193C59.6705 7.87595 59.5211 7.24921 59.2223 6.73907C58.9308 6.22893 58.4826 5.84268 57.8777 5.58032C57.2801 5.31068 56.5259 5.17586 55.6149 5.17586H52.4229V23.6939H47.6895ZM59.7798 13.5057L65.344 23.6939H60.1187L54.6748 13.5057H59.7798Z" fill="white"/>
<path d="M88.4642 12.5C88.4642 14.9414 88.0015 17.0184 87.0759 18.731C86.1577 20.4436 84.9042 21.7517 83.3155 22.6554C81.734 23.5518 79.9558 24 77.9809 24C75.9913 24 74.2058 23.5482 72.6244 22.6445C71.043 21.7408 69.7931 20.4327 68.8749 18.7201C67.9566 17.0074 67.4975 14.9341 67.4975 12.5C67.4975 10.0586 67.9566 7.98162 68.8749 6.26901C69.7931 4.5564 71.043 3.2519 72.6244 2.35551C74.2058 1.45184 75.9913 1 77.9809 1C79.9558 1 81.734 1.45184 83.3155 2.35551C84.9042 3.2519 86.1577 4.5564 87.0759 6.26901C88.0015 7.98162 88.4642 10.0586 88.4642 12.5ZM83.6653 12.5C83.6653 10.9186 83.4284 9.58492 82.9547 8.49905C82.4883 7.41318 81.8288 6.58967 80.9761 6.02852C80.1234 5.46737 79.125 5.18679 77.9809 5.18679C76.8367 5.18679 75.8383 5.46737 74.9856 6.02852C74.133 6.58967 73.4698 7.41318 72.9961 8.49905C72.5297 9.58492 72.2964 10.9186 72.2964 12.5C72.2964 14.0814 72.5297 15.4151 72.9961 16.501C73.4698 17.5868 74.133 18.4103 74.9856 18.9715C75.8383 19.5326 76.8367 19.8132 77.9809 19.8132C79.125 19.8132 80.1234 19.5326 80.9761 18.9715C81.8288 18.4103 82.4883 17.5868 82.9547 16.501C83.4284 15.4151 83.6653 14.0814 83.6653 12.5Z" fill="white"/>
<path d="M91.9705 1.30608H97.808L103.973 16.3479H104.236L110.401 1.30608H116.239V23.6939H111.647V9.12215H111.461L105.668 23.5846H102.541L96.7476 9.06749H96.5618V23.6939H91.9705V1.30608Z" fill="white"/>
<path d="M120.138 23.6939V1.30608H128.971C130.669 1.30608 132.116 1.63039 133.311 2.27899C134.506 2.92031 135.417 3.81305 136.044 4.95722C136.678 6.09411 136.995 7.40589 136.995 8.89259C136.995 10.3793 136.674 11.6911 136.033 12.8279C135.392 13.9648 134.462 14.8503 133.245 15.4843C132.036 16.1183 130.571 16.4354 128.851 16.4354H123.221V12.6421H128.086C128.997 12.6421 129.747 12.4854 130.338 12.1721C130.935 11.8514 131.38 11.4105 131.671 10.8493C131.97 10.2809 132.119 9.62864 132.119 8.89259C132.119 8.14924 131.97 7.50063 131.671 6.94677C131.38 6.38561 130.935 5.952 130.338 5.64591C129.74 5.33254 128.982 5.17586 128.064 5.17586H124.872V23.6939H120.138Z" fill="white"/>
<path d="M139.217 5.20865V1.30608H157.604V5.20865H150.75V23.6939H146.071V5.20865H139.217Z" fill="white"/>
<path d="M12.5 22.9167C18.253 22.9167 22.9167 18.253 22.9167 12.5C22.9167 6.74704 18.253 2.08334 12.5 2.08334C6.74707 2.08334 2.08337 6.74704 2.08337 12.5C2.08337 18.253 6.74707 22.9167 12.5 22.9167Z" stroke="white" stroke-width="2.5" stroke-linecap="round" stroke-linejoin="round"/>
<path d="M14.9062 8.33334L20.8854 18.6875" stroke="white" stroke-width="2.5" stroke-linecap="round" stroke-linejoin="round"/>
<path d="M10.0938 8.33334H22.0521" stroke="white" stroke-width="2.5" stroke-linecap="round" stroke-linejoin="round"/>
<path d="M7.6875 12.5L13.6667 2.14584" stroke="white" stroke-width="2.5" stroke-linecap="round" stroke-linejoin="round"/>
<path d="M10.0938 16.6667L4.11462 6.3125" stroke="white" stroke-width="2.5" stroke-linecap="round" stroke-linejoin="round"/>
<path d="M14.9062 16.6667H2.94788" stroke="white" stroke-width="2.5" stroke-linecap="round" stroke-linejoin="round"/>
<path d="M17.3125 12.5L11.3334 22.8542" stroke="white" stroke-width="2.5" stroke-linecap="round" stroke-linejoin="round"/>
</svg>
