<svg width="86" height="25" viewBox="0 0 86 25" fill="none" xmlns="http://www.w3.org/2000/svg">
<path d="M7.616 24.48C6.208 24.48 4.81067 24.3413 3.424 24.064C2.03733 23.808 0.896 23.4453 0 22.976V17.888C1.152 18.4853 2.34667 18.9333 3.584 19.232C4.84267 19.5307 6.03733 19.68 7.168 19.68C8.21333 19.68 9.00267 19.52 9.536 19.2C10.0693 18.88 10.336 18.4213 10.336 17.824C10.336 17.376 10.1867 16.992 9.888 16.672C9.61067 16.3307 9.19467 16.0213 8.64 15.744C8.08533 15.4667 7.22133 15.0827 6.048 14.592C3.97867 13.7173 2.47467 12.7467 1.536 11.68C0.597333 10.6133 0.128 9.30132 0.128 7.74399C0.128 6.46399 0.48 5.32266 1.184 4.31999C1.90933 3.31732 2.912 2.53866 4.192 1.98399C5.472 1.42932 6.944 1.15199 8.608 1.15199C9.97333 1.15199 11.1893 1.25866 12.256 1.47199C13.3227 1.68532 14.3467 2.02666 15.328 2.49599V7.45599C13.4507 6.47466 11.5627 5.98399 9.664 5.98399C8.64 5.98399 7.81867 6.15466 7.2 6.49599C6.60267 6.81599 6.304 7.28532 6.304 7.90399C6.304 8.52266 6.61333 9.02399 7.232 9.40799C7.85067 9.79199 8.992 10.3147 10.656 10.976C12.1707 11.5947 13.344 12.2027 14.176 12.8C15.0293 13.3973 15.648 14.0907 16.032 14.88C16.416 15.6693 16.608 16.672 16.608 17.888C16.608 19.9573 15.8507 21.5787 14.336 22.752C12.8427 23.904 10.6027 24.48 7.616 24.48Z" fill="white"/>
<path d="M18.8587 0.35199H24.4908V14.816L29.5468 8.63999H36.0107L29.8988 16.064L36.8428 24H30.3788L24.4908 17.248V24H18.8587V0.35199Z" fill="white"/>
<path d="M42.0855 6.59199C41.2322 6.59199 40.5175 6.31466 39.9415 5.75999C39.3655 5.20532 39.0775 4.50132 39.0775 3.64799C39.0775 2.81599 39.3655 2.12266 39.9415 1.56799C40.5175 0.991989 41.2322 0.703989 42.0855 0.703989C42.9175 0.703989 43.6215 0.991989 44.1975 1.56799C44.7948 2.12266 45.0935 2.81599 45.0935 3.64799C45.0935 4.47999 44.7948 5.18399 44.1975 5.75999C43.6215 6.31466 42.9175 6.59199 42.0855 6.59199ZM39.2695 8.63999H44.9015V24H39.2695V8.63999Z" fill="white"/>
<path d="M47.9837 8.63999H53.4238V10.336C54.0851 9.61066 54.8851 9.06666 55.8237 8.70399C56.7624 8.34132 57.7437 8.15999 58.7677 8.15999C60.9224 8.15999 62.5118 8.72532 63.5358 9.85599C64.5811 10.9653 65.1038 12.48 65.1038 14.4V24H59.4718V15.136C59.4718 13.408 58.6824 12.544 57.1038 12.544C56.3784 12.544 55.7171 12.7147 55.1198 13.056C54.5224 13.376 54.0211 13.8773 53.6157 14.56V24H47.9837V8.63999Z" fill="white"/>
<path d="M71.4435 15.488L63.1875 1.63199H69.2355L74.2915 10.304L79.5715 1.63199H85.5875L77.1075 15.488V24H71.4435V15.488Z" fill="white"/>
</svg>
