<svg width="111" height="26" viewBox="0 0 111 26" fill="none" xmlns="http://www.w3.org/2000/svg">
<path d="M30.4697 23V2.63635H34.7751V19.4503H43.5052V23H30.4697Z" fill="white"/>
<path d="M52.6771 23.2983C51.1061 23.2983 49.7538 22.9801 48.6203 22.3437C47.4934 21.7007 46.625 20.7926 46.0152 19.6193C45.4053 18.4394 45.1004 17.044 45.1004 15.4332C45.1004 13.8622 45.4053 12.4834 46.0152 11.2969C46.625 10.1103 47.4835 9.1856 48.5905 8.52272C49.7041 7.85984 51.01 7.5284 52.5081 7.5284C53.5157 7.5284 54.4536 7.6908 55.322 8.01561C56.197 8.3338 56.9593 8.81438 57.6089 9.45738C58.2652 10.1004 58.7756 10.9091 59.1402 11.8835C59.5048 12.8513 59.6871 13.9848 59.6871 15.2841V16.4474H46.7908V13.8224H55.6999C55.6999 13.2126 55.5673 12.6723 55.3021 12.2017C55.037 11.7311 54.6691 11.3632 54.1984 11.098C53.7344 10.8262 53.1942 10.6903 52.5777 10.6903C51.9347 10.6903 51.3646 10.8395 50.8675 11.1378C50.3769 11.4294 49.9925 11.8239 49.7141 12.321C49.4356 12.8115 49.2931 13.3584 49.2865 13.9616V16.4574C49.2865 17.2131 49.4257 17.866 49.7041 18.4162C49.9892 18.9664 50.3902 19.3906 50.9072 19.6889C51.4243 19.9872 52.0374 20.1364 52.7467 20.1364C53.2174 20.1364 53.6482 20.0701 54.0393 19.9375C54.4304 19.8049 54.7652 19.6061 55.0436 19.3409C55.322 19.0757 55.5341 18.7509 55.68 18.3665L59.5976 18.625C59.3987 19.5663 58.991 20.3882 58.3746 21.0909C57.7647 21.7869 56.9759 22.3305 56.0081 22.7216C55.0469 23.1061 53.9366 23.2983 52.6771 23.2983Z" fill="white"/>
<path d="M66.2464 23.2883C65.272 23.2883 64.4036 23.1193 63.6413 22.7812C62.879 22.4365 62.2757 21.9294 61.8316 21.2599C61.3941 20.5838 61.1754 19.7419 61.1754 18.7344C61.1754 17.8859 61.3311 17.1733 61.6427 16.5966C61.9542 16.0199 62.3785 15.5559 62.9154 15.2045C63.4524 14.8532 64.0622 14.5881 64.745 14.4091C65.4344 14.2301 66.1569 14.1042 66.9126 14.0312C67.8008 13.9384 68.5167 13.8523 69.0603 13.7727C69.6039 13.6865 69.9983 13.5606 70.2435 13.3949C70.4888 13.2292 70.6114 12.9839 70.6114 12.6591V12.5994C70.6114 11.9697 70.4126 11.4825 70.0149 11.1378C69.6238 10.7931 69.0669 10.6207 68.3444 10.6207C67.5821 10.6207 66.9756 10.7898 66.5248 11.1278C66.074 11.4593 65.7757 11.8769 65.6299 12.3807L61.7123 12.0625C61.9112 11.1345 62.3023 10.3324 62.8856 9.65624C63.4689 8.97347 64.2213 8.4498 65.1427 8.08522C66.0707 7.714 67.1446 7.5284 68.3643 7.5284C69.2128 7.5284 70.0248 7.62783 70.8004 7.82669C71.5826 8.02556 72.2753 8.3338 72.8785 8.75141C73.4883 9.16902 73.9689 9.70596 74.3203 10.3622C74.6716 11.0118 74.8472 11.7907 74.8472 12.6989V23H70.8302V20.8821H70.7109C70.4656 21.3594 70.1375 21.7803 69.7265 22.1449C69.3155 22.5028 68.8217 22.7846 68.245 22.99C67.6683 23.1889 67.0021 23.2883 66.2464 23.2883ZM67.4595 20.365C68.0826 20.365 68.6328 20.2424 69.11 19.9971C69.5873 19.7453 69.9618 19.4072 70.2336 18.9829C70.5054 18.5587 70.6413 18.0781 70.6413 17.5412V15.9204C70.5087 16.0066 70.3264 16.0862 70.0944 16.1591C69.869 16.2254 69.6138 16.2883 69.3288 16.348C69.0437 16.401 68.7587 16.4507 68.4737 16.4971C68.1886 16.5369 67.9301 16.5734 67.6981 16.6065C67.2009 16.6794 66.7667 16.7954 66.3955 16.9545C66.0243 17.1136 65.736 17.3291 65.5305 17.6008C65.325 17.866 65.2222 18.1974 65.2222 18.5952C65.2222 19.1719 65.431 19.6127 65.8487 19.9176C66.2729 20.2159 66.8098 20.365 67.4595 20.365Z" fill="white"/>
<path d="M77.5735 23V7.72726H81.68V10.392H81.8391C82.1175 9.44412 82.5848 8.72821 83.2411 8.24431C83.8973 7.75378 84.653 7.50851 85.5081 7.50851C85.7202 7.50851 85.9489 7.52177 86.1942 7.54828C86.4395 7.5748 86.6549 7.61126 86.8405 7.65766V11.4162C86.6416 11.3565 86.3666 11.3035 86.0152 11.2571C85.6639 11.2107 85.3424 11.1875 85.0507 11.1875C84.4276 11.1875 83.8708 11.3234 83.3803 11.5952C82.8964 11.8603 82.5119 12.2315 82.2269 12.7088C81.9485 13.1861 81.8093 13.7363 81.8093 14.3594V23H77.5735Z" fill="white"/>
<path d="M92.7063 14.1704V23H88.4705V7.72726H92.5074V10.4219H92.6864C93.0245 9.53361 93.5912 8.83095 94.3867 8.31391C95.1821 7.79024 96.1466 7.5284 97.2802 7.5284C98.3408 7.5284 99.2655 7.76041 100.054 8.22442C100.843 8.68844 101.456 9.35131 101.894 10.2131C102.331 11.0682 102.55 12.089 102.55 13.2756V23H98.3142V14.0312C98.3209 13.0966 98.0822 12.3674 97.5983 11.8437C97.1144 11.3134 96.4482 11.0483 95.5998 11.0483C95.0297 11.0483 94.5259 11.1709 94.0884 11.4162C93.6575 11.6614 93.3195 12.0194 93.0742 12.49C92.8355 12.9541 92.7129 13.5142 92.7063 14.1704Z" fill="white"/>
<path d="M107.804 23.2585C107.148 23.2585 106.585 23.0265 106.114 22.5625C105.65 22.0918 105.418 21.5284 105.418 20.8721C105.418 20.2225 105.65 19.6657 106.114 19.2017C106.585 18.7377 107.148 18.5057 107.804 18.5057C108.441 18.5057 108.997 18.7377 109.475 19.2017C109.952 19.6657 110.191 20.2225 110.191 20.8721C110.191 21.3096 110.078 21.7107 109.853 22.0753C109.634 22.4332 109.346 22.7216 108.988 22.9403C108.63 23.1525 108.235 23.2585 107.804 23.2585Z" fill="white"/>
<rect width="24.7" height="26" rx="3.5" fill="#754FFE"/>
<path d="M15.7339 18.5347C14.6744 19.1046 13.6409 19.3767 12.6334 19.351C11.6281 19.3181 10.7007 19.0068 9.85112 18.417C8.9991 17.8227 8.27575 16.9728 7.68109 15.8674C7.09629 14.7803 6.78946 13.7152 6.76058 12.6721C6.73383 11.622 6.9709 10.6665 7.47179 9.80558C7.97021 8.94011 8.72396 8.23596 9.73305 7.69311C10.3844 7.34273 11.0557 7.11758 11.7472 7.01766C12.4407 6.9107 13.1272 6.95541 13.8065 7.1518C14.4904 7.34573 15.1422 7.71073 15.7617 8.2468C16.3788 8.77829 16.9366 9.50729 17.435 10.4338C17.6619 10.8556 17.504 11.3814 17.0822 11.6083L10.0232 15.4058C9.55962 15.6552 8.98165 15.4816 8.73227 15.018C8.48288 14.5544 8.65652 13.9764 9.12009 13.7271L13.2321 11.5149C13.9609 11.1229 14.2534 10.1501 13.561 9.69682C13.1569 9.42928 12.7157 9.28518 12.2373 9.26454C11.7636 9.24142 11.2882 9.35818 10.8112 9.6148C10.3021 9.88869 9.92148 10.2531 9.66944 10.7081C9.41493 11.1584 9.28722 11.6411 9.28632 12.1561C9.28753 12.6641 9.41292 13.1555 9.66249 13.6304L10.4508 15.0959C10.7815 15.7105 11.1776 16.1776 11.6393 16.497C12.0984 16.8118 12.5927 16.9776 13.1222 16.9944C13.6492 17.0066 14.1833 16.8671 14.7246 16.576C15.0869 16.381 15.3877 16.1541 15.627 15.8953C15.8638 15.6319 16.0357 15.3413 16.1427 15.0235C16.3349 14.4526 16.6206 13.8531 17.1797 13.6288L17.2371 13.6058C18.0112 13.2952 18.9081 13.7487 18.8116 14.5771C18.792 14.7461 18.7616 14.9146 18.7206 15.0827C18.5567 15.7564 18.2238 16.3909 17.7219 16.9861C17.2176 17.5768 16.555 18.093 15.7339 18.5347Z" fill="white"/>
</svg>
