<svg width="109" height="24" viewBox="0 0 109 24" fill="none" xmlns="http://www.w3.org/2000/svg">
<path d="M43.5291 20.288C41.8331 20.288 40.3771 19.928 39.1611 19.208C37.9451 18.472 37.0091 17.456 36.3531 16.16C35.6971 14.848 35.3691 13.336 35.3691 11.624C35.3691 9.91197 35.6971 8.39997 36.3531 7.08797C37.0091 5.77597 37.9451 4.75197 39.1611 4.01597C40.3771 3.27997 41.8331 2.91197 43.5291 2.91197C45.5451 2.91197 47.1931 3.41597 48.4731 4.42397C49.7691 5.41597 50.5771 6.81597 50.8971 8.62397H47.5131C47.3051 7.71197 46.8571 6.99997 46.1691 6.48797C45.4971 5.95997 44.6011 5.69597 43.4811 5.69597C41.9291 5.69597 40.7131 6.22397 39.8331 7.27997C38.9531 8.33597 38.5131 9.78397 38.5131 11.624C38.5131 13.464 38.9531 14.912 39.8331 15.968C40.7131 17.008 41.9291 17.528 43.4811 17.528C44.6011 17.528 45.4971 17.288 46.1691 16.808C46.8571 16.312 47.3051 15.632 47.5131 14.768H50.8971C50.5771 16.496 49.7691 17.848 48.4731 18.824C47.1931 19.8 45.5451 20.288 43.5291 20.288Z" fill="white"/>
<path d="M53.5445 20V8.09597H56.2805L56.5685 10.328C57.0005 9.55997 57.5845 8.95197 58.3205 8.50397C59.0725 8.03997 59.9525 7.80797 60.9605 7.80797V11.048H60.0965C59.4245 11.048 58.8245 11.152 58.2965 11.36C57.7685 11.568 57.3525 11.928 57.0485 12.44C56.7605 12.952 56.6165 13.664 56.6165 14.576V20H53.5445Z" fill="white"/>
<path d="M64.7161 6.24797C64.1561 6.24797 63.6921 6.07997 63.3241 5.74397C62.9721 5.40797 62.7961 4.98397 62.7961 4.47197C62.7961 3.95997 62.9721 3.54397 63.3241 3.22397C63.6921 2.88797 64.1561 2.71997 64.7161 2.71997C65.2761 2.71997 65.7321 2.88797 66.0841 3.22397C66.4521 3.54397 66.6361 3.95997 66.6361 4.47197C66.6361 4.98397 66.4521 5.40797 66.0841 5.74397C65.7321 6.07997 65.2761 6.24797 64.7161 6.24797ZM63.1801 20V8.09597H66.2521V20H63.1801Z" fill="white"/>
<path d="M69.4585 20V2.71997H72.5305V12.92L76.7545 8.09597H80.4025L75.5305 13.52L81.1945 20H77.3545L72.5305 14.024V20H69.4585Z" fill="white"/>
<path d="M87.8268 20.288C86.6748 20.288 85.6348 20.024 84.7068 19.496C83.7948 18.968 83.0668 18.24 82.5228 17.312C81.9948 16.368 81.7308 15.28 81.7308 14.048C81.7308 12.816 82.0028 11.736 82.5468 10.808C83.0908 9.86397 83.8188 9.12797 84.7308 8.59997C85.6588 8.07197 86.6988 7.80797 87.8508 7.80797C88.9868 7.80797 90.0108 8.07197 90.9228 8.59997C91.8508 9.12797 92.5788 9.86397 93.1068 10.808C93.6508 11.736 93.9228 12.816 93.9228 14.048C93.9228 15.28 93.6508 16.368 93.1068 17.312C92.5788 18.24 91.8508 18.968 90.9228 19.496C89.9948 20.024 88.9628 20.288 87.8268 20.288ZM87.8268 17.624C88.6268 17.624 89.3228 17.328 89.9148 16.736C90.5068 16.128 90.8028 15.232 90.8028 14.048C90.8028 12.864 90.5068 11.976 89.9148 11.384C89.3228 10.776 88.6348 10.472 87.8508 10.472C87.0348 10.472 86.3308 10.776 85.7388 11.384C85.1628 11.976 84.8748 12.864 84.8748 14.048C84.8748 15.232 85.1628 16.128 85.7388 16.736C86.3308 17.328 87.0268 17.624 87.8268 17.624Z" fill="white"/>
<path d="M96.6695 20V8.09597H99.3815L99.6215 10.112C99.9895 9.40797 100.517 8.84797 101.205 8.43197C101.909 8.01597 102.733 7.80797 103.677 7.80797C105.149 7.80797 106.293 8.27197 107.109 9.19997C107.925 10.128 108.333 11.488 108.333 13.28V20H105.261V13.568C105.261 12.544 105.053 11.76 104.637 11.216C104.221 10.672 103.573 10.4 102.693 10.4C101.829 10.4 101.117 10.704 100.557 11.312C100.013 11.92 99.7415 12.768 99.7415 13.856V20H96.6695Z" fill="white"/>
<path d="M18.9221 5.77922V3C18.9221 1.89543 18.0266 1 16.9221 1H3C1.89543 1 1 1.89543 1 3V16.9221C1 18.0266 1.89543 18.9221 3 18.9221H6.22727" stroke="white" stroke-width="2"/>
<rect x="7.07812" y="6.48047" width="15.9221" height="15.9221" rx="1" stroke="white" stroke-width="2"/>
</svg>
