<svg width="177" height="28" viewBox="0 0 177 28" fill="none" xmlns="http://www.w3.org/2000/svg">
<path d="M30.6809 1.24568V26.1592H36.9093V1.24568H30.6809ZM45.3799 1.24568L35.1654 13.0974L45.6647 26.1592H52.9608L42.3191 12.9195L52.4269 1.24568H45.3799Z" fill="white"/>
<path d="M64.0195 14.877L70.9953 26.1592H78.0423L70.2479 14.877H64.0195ZM57.7911 1.24568V26.1592H63.806V1.24568H57.7911ZM61.5637 6.33516H66.4397C67.2464 6.33516 67.9345 6.46566 68.5039 6.72666C69.0971 6.98766 69.5479 7.36729 69.8564 7.86557C70.1649 8.34011 70.3191 8.92143 70.3191 9.60951C70.3191 10.2976 70.1649 10.8908 69.8564 11.3891C69.5479 11.8636 69.0971 12.2314 68.5039 12.4924C67.9345 12.7296 67.2464 12.8483 66.4397 12.8483H61.5637V17.5107H66.8668C69.0022 17.5107 70.7818 17.1666 72.2054 16.4785C73.629 15.7905 74.7086 14.8414 75.4442 13.6313C76.1797 12.3975 76.5475 10.9857 76.5475 9.39597C76.5475 7.78252 76.1797 6.37075 75.4442 5.16066C74.7086 3.92685 73.629 2.9659 72.2054 2.27781C70.7818 1.58972 69.0022 1.24568 66.8668 1.24568H61.5637V6.33516Z" fill="white"/>
<path d="M83.0592 1.24568V26.1592H89.1808V1.24568H83.0592Z" fill="white"/>
<path d="M113.874 1.24568V15.2685L96.6838 0V26.1592H102.45V12.1365L119.675 27.4049V1.24568H113.874Z" fill="white"/>
<path d="M127.165 1.24568V26.1592H133.394V1.24568H127.165ZM141.864 1.24568L131.65 13.0974L142.149 26.1592H149.445L138.804 12.9195L148.911 1.24568H141.864Z" fill="white"/>
<path d="M169.34 1.24568L164.464 10.6061L159.588 1.24568H152.684L161.403 16.0514V26.1592H167.525V16.0159L176.245 1.24568H169.34Z" fill="white"/>
<g clip-path="url(#clip0_21_103)">
<path d="M14.5032 3.92911C16.4858 4.08249 18.383 4.80111 19.9697 5.99979C21.5564 7.19847 22.7662 8.82694 23.4556 10.6922C24.1451 12.5574 24.2853 14.5813 23.8597 16.5238C23.434 18.4663 22.4604 20.246 21.0541 21.6521C19.6479 23.0581 17.868 24.0315 15.9254 24.4568C13.9828 24.8822 11.959 24.7416 10.0939 24.0519C8.22873 23.3621 6.60045 22.1521 5.40201 20.5652C4.20358 18.9783 3.48526 17.0811 3.33218 15.0984L3.33222 15.0984L3.3316 15.0915C3.29808 14.7231 3.12095 14.3827 2.83848 14.1438C2.55602 13.905 2.19091 13.7868 1.82205 13.8149C1.45319 13.843 1.1102 14.0152 0.867211 14.2941C0.624219 14.573 0.500733 14.9364 0.523439 15.3056L0.523378 15.3056L0.52398 15.3134C0.718495 17.8332 1.6314 20.2444 3.1545 22.2611C4.67759 24.2779 6.74699 25.8157 9.1174 26.6922C11.4878 27.5687 14.0598 27.7472 16.5286 27.2065C18.9974 26.6658 21.2593 25.4286 23.0464 23.6415C24.8335 21.8545 26.0707 19.5925 26.6114 17.1237C27.1521 14.655 26.9736 12.0829 26.0971 9.71252C25.2205 7.34211 23.6828 5.2727 21.666 3.74961C19.6492 2.22652 17.2381 1.31361 14.7183 1.1191L14.6798 1.61761L14.7178 1.11906C14.5333 1.10501 14.3478 1.12744 14.1719 1.18507C13.9961 1.24269 13.8333 1.33439 13.6929 1.45493C13.5525 1.57546 13.4372 1.72247 13.3536 1.88756C13.27 2.05266 13.2198 2.2326 13.2057 2.41711C13.1917 2.60162 13.2141 2.78709 13.2717 2.96294C13.3294 3.13879 13.4211 3.30156 13.5416 3.44196C13.6621 3.58237 13.8091 3.69766 13.9742 3.78125C14.1391 3.86475 14.3189 3.91499 14.5032 3.92911ZM14.5032 3.92911C14.5034 3.92912 14.5036 3.92914 14.5038 3.92915L14.5417 3.4306L14.5032 3.92911ZM1.02247 15.2749L1.0225 15.2749L1.02247 15.2749Z" fill="#FF651C" stroke="#FF651C"/>
<path d="M11.7067 14.3386L11.7066 14.3387L11.7129 14.3447C11.9785 14.6012 12.3342 14.7432 12.7035 14.74C13.0728 14.7368 13.426 14.5887 13.6871 14.3276C13.9482 14.0664 14.0963 13.7132 14.0995 13.344C14.1027 12.9747 13.9608 12.619 13.7042 12.3534L13.7043 12.3533L13.6982 12.3472L5.29424 3.94326H9.11552C9.48903 3.94326 9.84724 3.79489 10.1113 3.53078C10.3755 3.26667 10.5238 2.90846 10.5238 2.53495C10.5238 2.16145 10.3755 1.80324 10.1113 1.53913C9.84724 1.27502 9.48903 1.12665 9.11552 1.12665H1.89448C1.52098 1.12665 1.16277 1.27502 0.898659 1.53913C0.63455 1.80324 0.486176 2.16145 0.486176 2.53495V9.75599C0.486176 10.1295 0.63455 10.4877 0.898659 10.7518C1.16277 11.0159 1.52098 11.1643 1.89448 11.1643C2.26799 11.1643 2.6262 11.0159 2.89031 10.7518C3.15441 10.4877 3.30279 10.1295 3.30279 9.75599V5.93471L11.7067 14.3386Z" fill="#FF651C" stroke="#FF651C"/>
</g>
<defs>
<clipPath id="clip0_21_103">
<rect width="27.4049" height="27.4049" fill="white" transform="translate(0 0.595093)"/>
</clipPath>
</defs>
</svg>
