<svg width="177" height="29" viewBox="0 0 177 29" fill="none" xmlns="http://www.w3.org/2000/svg">
<path d="M30.6809 1.48567V26.3992H36.9093V1.48567H30.6809ZM45.3799 1.48567L35.1654 13.3374L45.6647 26.3992H52.9608L42.3191 13.1594L52.4269 1.48567H45.3799Z" fill="#373737"/>
<path d="M64.0195 15.1169L70.9953 26.3992H78.0423L70.2479 15.1169H64.0195ZM57.7911 1.48567V26.3992H63.806V1.48567H57.7911ZM61.5637 6.57515H66.4397C67.2464 6.57515 67.9345 6.70565 68.5039 6.96665C69.0971 7.22765 69.5479 7.60729 69.8564 8.10556C70.1649 8.5801 70.3191 9.16142 70.3191 9.8495C70.3191 10.5376 70.1649 11.1308 69.8564 11.629C69.5479 12.1036 69.0971 12.4714 68.5039 12.7324C67.9345 12.9696 67.2464 13.0883 66.4397 13.0883H61.5637V17.7507H66.8668C69.0022 17.7507 70.7818 17.4066 72.2054 16.7185C73.629 16.0304 74.7086 15.0814 75.4442 13.8713C76.1797 12.6375 76.5475 11.2257 76.5475 9.63596C76.5475 8.02251 76.1797 6.61074 75.4442 5.40066C74.7086 4.16684 73.629 3.20589 72.2054 2.5178C70.7818 1.82971 69.0022 1.48567 66.8668 1.48567H61.5637V6.57515Z" fill="#373737"/>
<path d="M83.0592 1.48567V26.3992H89.1808V1.48567H83.0592Z" fill="#373737"/>
<path d="M113.874 1.48567V15.5084L96.6838 0.23999V26.3992H102.45V12.3765L119.675 27.6449V1.48567H113.874Z" fill="#373737"/>
<path d="M127.165 1.48567V26.3992H133.394V1.48567H127.165ZM141.864 1.48567L131.65 13.3374L142.149 26.3992H149.445L138.804 13.1594L148.911 1.48567H141.864Z" fill="#373737"/>
<path d="M169.34 1.48567L164.464 10.846L159.588 1.48567H152.684L161.403 16.2914V26.3992H167.525V16.2558L176.245 1.48567H169.34Z" fill="#373737"/>
<g clip-path="url(#clip0_21_101)">
<path d="M14.5032 4.1691C16.4858 4.32248 18.383 5.0411 19.9697 6.23978C21.5564 7.43846 22.7662 9.06693 23.4556 10.9322C24.1451 12.7974 24.2853 14.8213 23.8597 16.7638C23.434 18.7063 22.4604 20.486 21.0541 21.892C19.6479 23.2981 17.868 24.2715 15.9254 24.6968C13.9828 25.1221 11.959 24.9816 10.0939 24.2919C8.22873 23.6021 6.60045 22.3921 5.40201 20.8052C4.20358 19.2183 3.48526 17.321 3.33218 15.3384L3.33222 15.3383L3.3316 15.3315C3.29808 14.9631 3.12095 14.6227 2.83848 14.3838C2.55602 14.1449 2.19091 14.0268 1.82205 14.0549C1.45319 14.083 1.1102 14.2552 0.867211 14.5341C0.624219 14.813 0.500733 15.1764 0.523439 15.5456L0.523378 15.5456L0.52398 15.5534C0.718495 18.0732 1.6314 20.4844 3.1545 22.5011C4.67759 24.5179 6.74699 26.0557 9.1174 26.9322C11.4878 27.8087 14.0598 27.9872 16.5286 27.4465C18.9974 26.9058 21.2593 25.6686 23.0464 23.8815C24.8335 22.0945 26.0707 19.8325 26.6114 17.3637C27.1521 14.895 26.9736 12.3229 26.0971 9.95251C25.2205 7.5821 23.6828 5.51269 21.666 3.9896C19.6492 2.46651 17.2381 1.5536 14.7183 1.35909L14.6798 1.85761L14.7178 1.35905C14.5333 1.345 14.3478 1.36743 14.1719 1.42506C13.9961 1.48268 13.8333 1.57438 13.6929 1.69492C13.5525 1.81545 13.4372 1.96246 13.3536 2.12755C13.27 2.29265 13.2198 2.47259 13.2057 2.6571C13.1917 2.84161 13.2141 3.02708 13.2717 3.20293C13.3294 3.37878 13.4211 3.54155 13.5416 3.68195C13.6621 3.82236 13.8091 3.93765 13.9742 4.02124C14.1391 4.10474 14.3189 4.15498 14.5032 4.1691ZM14.5032 4.1691C14.5034 4.16911 14.5036 4.16913 14.5038 4.16914L14.5417 3.67059L14.5032 4.1691ZM1.02247 15.5149L1.0225 15.5149L1.02247 15.5149Z" fill="#FF651C" stroke="#FF651C"/>
<path d="M11.7067 14.5786L11.7066 14.5787L11.7129 14.5847C11.9785 14.8412 12.3342 14.9832 12.7035 14.98C13.0728 14.9768 13.426 14.8287 13.6871 14.5675C13.9482 14.3064 14.0963 13.9532 14.0995 13.584C14.1027 13.2147 13.9608 12.859 13.7042 12.5934L13.7043 12.5933L13.6982 12.5872L5.29424 4.18325H9.11552C9.48903 4.18325 9.84724 4.03488 10.1113 3.77077C10.3755 3.50666 10.5238 3.14845 10.5238 2.77495C10.5238 2.40144 10.3755 2.04323 10.1113 1.77912C9.84724 1.51501 9.48903 1.36664 9.11552 1.36664H1.89448C1.52098 1.36664 1.16277 1.51501 0.898659 1.77912C0.63455 2.04323 0.486176 2.40144 0.486176 2.77495V9.99598C0.486176 10.3695 0.63455 10.7277 0.898659 10.9918C1.16277 11.2559 1.52098 11.4043 1.89448 11.4043C2.26799 11.4043 2.6262 11.2559 2.89031 10.9918C3.15441 10.7277 3.30279 10.3695 3.30279 9.99598V6.17471L11.7067 14.5786Z" fill="#FF651C" stroke="#FF651C"/>
</g>
<defs>
<clipPath id="clip0_21_101">
<rect width="27.4049" height="27.4049" fill="white" transform="translate(0 0.835083)"/>
</clipPath>
</defs>
</svg>
